<?xml version="1.0" encoding="utf-8"?>
<!-- Generator: Adobe Illustrator 19.2.1, SVG Export Plug-In . SVG Version: 6.00 Build 0)  -->
<svg version="1.1" id="Layer_1" xmlns="http://www.w3.org/2000/svg" xmlns:xlink="http://www.w3.org/1999/xlink" x="0px" y="0px"
	 viewBox="0 0 312.7 63.9" style="enable-background:new 0 0 312.7 63.9;" xml:space="preserve">
<style type="text/css">
	.st0{fill-rule:evenodd;clip-rule:evenodd;fill:#FFFFFF;}
	.st1{fill-rule:evenodd;clip-rule:evenodd;fill:#EF6E28;}
</style>
<g>
	<path class="st0" d="M75.8,35.4c0-5.8,0.2-7.9,0.9-10.2c1.7-5.9,6.1-9,12.2-9c6.4,0,10.4,3.8,11.8,7.8c0.1,0.3,0,0.5-0.2,0.8
		l-4.2,2c-0.2,0.1-0.5,0-0.6-0.3c-1.5-3-3.6-4.6-6.9-4.6c-3.4,0-5.4,1.9-6.4,4.8c-0.4,1.3-0.6,3.2-0.6,8.5s0.2,7.1,0.6,8.5
		c1,3,2.9,4.8,6.4,4.8c2.9,0,5.5-1.6,6.4-4.7c0.4-1.2,0.5-2.7,0.5-4.8c0-0.3-0.1-0.3-0.2-0.3H89c-0.2,0-0.5-0.3-0.5-0.5v-4.4
		c0-0.3,0.2-0.5,0.5-0.5h12c0.2,0,0.5,0.3,0.5,0.5V37c0,3.1-0.2,6.3-0.7,8.2c-1.6,5.8-6.1,9.1-11.9,9.1c-6,0-10.3-3.1-12.2-9
		C75.9,43.3,75.8,41.3,75.8,35.4"/>
	<path class="st0" d="M121.3,54c-0.2,0-0.5-0.3-0.5-0.5v-1.9c-1.4,1.7-3.2,3.1-6.3,3.1c-5.2,0-8.2-4.2-8.2-9.8V28.3
		c0-0.3,0.2-0.5,0.5-0.5h4.5c0.2,0,0.5,0.3,0.5,0.5v15.2c0,3.4,1.5,5.8,4.5,5.8c2.8,0,4.5-2.3,4.5-5.6V28.3c0-0.3,0.2-0.5,0.5-0.5
		h4.5c0.2,0,0.5,0.3,0.5,0.5v25.3c0,0.3-0.2,0.5-0.5,0.5h-4.7V54z"/>
	<path class="st0" d="M132.8,54c-0.2,0-0.5-0.3-0.5-0.5V28.3c0-0.3,0.2-0.5,0.5-0.5h4.5c0.2,0,0.5,0.3,0.5,0.5v25.3
		c0,0.3-0.2,0.5-0.5,0.5h-4.5V54z"/>
	<path class="st0" d="M158.7,54c-0.2,0-0.5-0.3-0.5-0.5v-1.9c-1.1,1.7-3.2,3.1-6.4,3.1c-4.1,0-7.1-2.1-8.4-6.3
		c-0.6-2-0.9-3.9-0.9-7.4s0.2-5.4,0.9-7.4c1.2-4.2,4.3-6.3,8.4-6.3c3.2,0,5.3,1.3,6.4,3.1V17.5c0-0.3,0.2-0.5,0.5-0.5h4.5
		c0.2,0,0.5,0.3,0.5,0.5v36c0,0.3-0.2,0.5-0.5,0.5h-4.5V54z M157.7,45.8c0.4-1.2,0.5-2.6,0.5-5c0-2.4-0.1-3.8-0.5-5
		c-0.6-2.1-2.2-3.4-4.5-3.4c-2.2,0-3.8,1.2-4.4,3.4c-0.4,1.2-0.5,2.6-0.5,5c0,2.4,0.1,3.8,0.5,5c0.6,2.1,2.2,3.4,4.4,3.4
		C155.5,49.1,157,47.9,157.7,45.8z"/>
	<path class="st0" d="M222.6,63.9c-0.2,0-0.5-0.3-0.5-0.5V28.3c0-0.3,0.2-0.5,0.5-0.5h4.5c0.2,0,0.5,0.3,0.5,0.5v2
		c1.1-1.7,3.2-3.1,6.4-3.1c4.1,0,7.1,2.1,8.4,6.3c0.6,2,0.9,3.9,0.9,7.4s-0.2,5.4-0.9,7.4c-1.2,4.2-4.3,6.3-8.4,6.3
		c-3.2,0-5.3-1.3-6.4-3.1v11.8c0,0.3-0.2,0.5-0.5,0.5H222.6 M237.1,45.8c0.4-1.2,0.5-2.6,0.5-5c0-2.4-0.1-3.8-0.5-5
		c-0.6-2.1-2.2-3.4-4.4-3.4c-2.3,0-3.8,1.2-4.5,3.4c-0.4,1.2-0.5,2.6-0.5,5c0,2.4,0.1,3.8,0.5,5c0.6,2.1,2.2,3.4,4.5,3.4
		C234.9,49.1,236.5,47.9,237.1,45.8"/>
	<path class="st0" d="M261.8,54c-0.2,0-0.5-0.3-0.5-0.5v-1.9c-1.1,1.7-3.4,3.1-6.8,3.1c-4.4,0-8.1-2.6-8.1-8.1
		c0-5.8,3.7-8.3,9.6-8.3h4.9c0.2,0,0.2-0.1,0.2-0.3v-1.2c0-3-1.7-4.3-5-4.3c-1.8,0-3.4,0.4-4.7,1.3c-0.2,0.3-0.5,0.1-0.7-0.1
		l-2.5-3.1c-0.1-0.3-0.1-0.5,0.1-0.7c2-1.5,4.2-2.7,8.2-2.7c6.8,0,9.8,2.7,9.8,9.1v17.2c0,0.3-0.2,0.5-0.5,0.5h-4.2V54z M261.2,45.2
		v-2c0-0.3-0.1-0.3-0.2-0.3H257c-3.6,0-5.2,1.1-5.2,3.5c0,2.1,1.5,3.2,4.2,3.2C259.3,49.7,261.2,48.2,261.2,45.2z"/>
	<path class="st0" d="M272.1,54c-0.2,0-0.5-0.3-0.5-0.5V28.3c0-0.3,0.2-0.5,0.5-0.5h4.5c0.2,0,0.5,0.3,0.5,0.5v1.9
		c1.2-1.9,3.7-3.1,6.3-3.1c1.8,0,3.8,0.8,5,2.1c0.2,0.3,0.2,0.5,0.1,0.8l-2.8,3.6c-0.2,0.3-0.5,0.3-0.7,0.1
		c-1.1-0.8-2.1-1.2-3.4-1.2c-3.2,0-4.5,2.4-4.5,6.7v14.2c0,0.3-0.2,0.5-0.5,0.5h-4.4V54z"/>
	<path class="st0" d="M307.1,54c-0.4,0-0.6-0.1-0.7-0.5l-6.1-11l-3.2,4v7c0,0.3-0.2,0.5-0.5,0.5H292c-0.2,0-0.5-0.3-0.5-0.5v-36
		c0-0.3,0.2-0.5,0.5-0.5h4.5c0.2,0,0.5,0.3,0.5,0.5v21.4l8.2-10.6c0.2-0.4,0.5-0.5,1-0.5h5c0.2,0,0.4,0.3,0.2,0.5l-7.6,9.5l8.7,15.6
		c0.1,0.3,0,0.5-0.2,0.5h-5.3V54z"/>
	<path class="st0" d="M136.7,23.3h-3.3c-0.6,0-1.1-0.5-1.1-1.2v-3.6c0-0.7,0.5-1.2,1.1-1.2h3.3c0.6,0,1.1,0.5,1.1,1.2V22
		C137.8,22.6,137.3,23.3,136.7,23.3"/>
	<path class="st0" d="M205.3,48.8c4.1,0,6.4-2.3,6.4-5.4c0-2.7-1.5-4.4-6.1-5.1l-1.8-0.3c-6.5-0.9-10.2-4.4-10.2-10.6
		c0-6.7,4.5-11.2,11.4-11.2c6.4,0,10.4,3.8,11.8,7.8c0.1,0.3,0,0.5-0.2,0.8l-4.2,2c-0.2,0.1-0.5,0-0.6-0.3c-1.5-3-3.6-4.6-6.9-4.6
		c-3.4,0-5.4,2-5.4,5c0,2.6,1.6,4.3,6.3,5l1.8,0.3c6.5,0.9,10.1,4.3,10.1,10.7c0,6.6-4.3,11.6-12.8,11.6c-6.4,0-10.4-3.8-11.8-7.8
		c-0.1-0.3,0-0.5,0.2-0.8l4.2-2c0.2-0.1,0.5,0,0.6,0.3c1.5,3,3.6,4.6,6.9,4.6H205.3"/>
	<path class="st0" d="M174.1,42.8h14.9c0.4,0,0.5-0.3,0.5-0.5c0-4.3-0.2-6-0.7-7.9c-1.4-4.4-4.9-7.3-9.8-7.3c-4.8,0-8.5,2.7-9.8,7.3
		c-0.5,1.7-0.7,3.8-0.7,6.4c0,2.7,0.4,4.7,0.9,6.4c1.4,4.6,4.9,7.3,10,7.3c5.2,0,8.5-2.7,9.8-6.2c0.1-0.3,0-0.5-0.1-0.7l-3.7-1.7
		c-0.2-0.1-0.5,0-0.6,0.3c-1.4,2.4-2.8,3-5,3c-2.7,0-4.5-1.5-5.4-4c-0.2-0.5-0.4-1.2-0.4-2C173.8,42.9,173.8,42.8,174.1,42.8
		 M174.1,35.7c0.6-2.1,2.5-3.4,4.8-3.4c2.2,0,4.1,1.2,4.7,3.4c0.2,0.7,0.2,1.3,0.2,2.3c0,0.3-0.1,0.3-0.2,0.3h-9.5
		c-0.2,0-0.2-0.1-0.2-0.3C173.8,37,173.8,36.4,174.1,35.7"/>
</g>
<path class="st1" d="M49,15.8l-13.1,2.1l-6-13c-4.2-9-16.6-4.7-15.2,5.4l1.8,14.4L4.5,31.4C-3.7,35.9,0.2,49.5,9.4,48l13.3-2.1l6,13
	c4.2,9,16.6,4.7,15.2-5.4L42,39l11.9-6.6C62.1,28,58.1,14.3,49,15.8 M48.6,25.2c-4.5,2.3-10.3,5.8-11.7,8.6
	c-1.4,2.8-0.6,10.1,0.2,15.5c0.1,0.8-1,1.2-1.2,0.4c-2.1-5-5.3-11.3-7.9-12.8c-2.6-1.5-9.2-0.7-14.1,0.3c-0.7,0.1-1.1-1.1-0.4-1.3
	c4.5-2.3,10.3-5.8,11.7-8.6c1.4-2.8,0.6-10.1-0.2-15.5c-0.1-0.8,1-1.2,1.2-0.4c2.1,5,5.3,11.3,7.9,12.8c2.6,1.5,9.2,0.7,14.1-0.3
	C49,23.7,49.2,24.9,48.6,25.2"/>
</svg>
